<svg id="eVCZTGopJrh1" xmlns="http://www.w3.org/2000/svg" xmlns:xlink="http://www.w3.org/1999/xlink" viewBox="0 0 500 500" shape-rendering="geometricPrecision" text-rendering="geometricPrecision"><rect width="500" height="500" rx="100" ry="100" fill="#005eb8" stroke="#000" stroke-linejoin="round"/><g id="eVCZTGopJrh3"><line x1="-45" y1="40" x2="-45" y2="-80" transform="translate(295 170)" fill="none" stroke="#fff" stroke-width="8" stroke-linecap="round"/><line x1="-15" y1="5" x2="5" y2="-25" transform="matrix(-1 0 0-1 255 99.695559)" fill="none" stroke="#fff" stroke-width="8" stroke-linecap="round"/><line x1="-15" y1="5" x2="5" y2="-25" transform="matrix(1 0 0-1 245 99.695559)" fill="none" stroke="#fff" stroke-width="8" stroke-linecap="round"/></g><g id="eVCZTGopJrh7" transform="matrix(.809017 0.587785-.587785 0.809017 194.692064-99.200562)"><line x1="-45" y1="40" x2="-45" y2="-80" transform="translate(295 170)" fill="none" stroke="#fff" stroke-width="8" stroke-linecap="round"/><line x1="-15" y1="5" x2="5" y2="-25" transform="matrix(-1 0 0-1 255 99.695559)" fill="none" stroke="#fff" stroke-width="8" stroke-linecap="round"/><line x1="-15" y1="5" x2="5" y2="-25" transform="matrix(1 0 0-1 245 99.695559)" fill="none" stroke="#fff" stroke-width="8" stroke-linecap="round"/></g><g id="eVCZTGopJrh15" transform="matrix(.309017 0.951057-.951057 0.309017 410.50988-65.018378)"><line x1="-45" y1="40" x2="-45" y2="-80" transform="translate(295 170)" fill="none" stroke="#fff" stroke-width="8" stroke-linecap="round"/><line x1="-15" y1="5" x2="5" y2="-25" transform="matrix(-1 0 0-1 255 99.695559)" fill="none" stroke="#fff" stroke-width="8" stroke-linecap="round"/><line x1="-15" y1="5" x2="5" y2="-25" transform="matrix(1 0 0-1 245 99.695559)" fill="none" stroke="#fff" stroke-width="8" stroke-linecap="round"/></g><g id="eVCZTGopJrh23" transform="matrix(-.309017 0.951057-.951057-.309017 565.018378 89.49012)"><line x1="-45" y1="40" x2="-45" y2="-80" transform="translate(295 170)" fill="none" stroke="#fff" stroke-width="8" stroke-linecap="round"/><line x1="-15" y1="5" x2="5" y2="-25" transform="matrix(-1 0 0-1 255 99.695559)" fill="none" stroke="#fff" stroke-width="8" stroke-linecap="round"/><line x1="-15" y1="5" x2="5" y2="-25" transform="matrix(1 0 0-1 245 99.695559)" fill="none" stroke="#fff" stroke-width="8" stroke-linecap="round"/></g><g id="eVCZTGopJrh27" transform="matrix(-.809017 0.587785-.587785-.809017 599.200562 305.307936)"><line x1="-45" y1="40" x2="-45" y2="-80" transform="translate(295 170)" fill="none" stroke="#fff" stroke-width="8" stroke-linecap="round"/><line x1="-15" y1="5" x2="5" y2="-25" transform="matrix(-1 0 0-1 255 99.695559)" fill="none" stroke="#fff" stroke-width="8" stroke-linecap="round"/><line x1="-15" y1="5" x2="5" y2="-25" transform="matrix(1 0 0-1 245 99.695559)" fill="none" stroke="#fff" stroke-width="8" stroke-linecap="round"/></g><g id="eVCZTGopJrh31" transform="matrix(-1 0 0-1 500 500)"><line x1="-45" y1="40" x2="-45" y2="-80" transform="translate(295 170)" fill="none" stroke="#fff" stroke-width="8" stroke-linecap="round"/><line x1="-15" y1="5" x2="5" y2="-25" transform="matrix(-1 0 0-1 255 99.695559)" fill="none" stroke="#fff" stroke-width="8" stroke-linecap="round"/><line x1="-15" y1="5" x2="5" y2="-25" transform="matrix(1 0 0-1 245 99.695559)" fill="none" stroke="#fff" stroke-width="8" stroke-linecap="round"/></g><g id="eVCZTGopJrh35" transform="matrix(-.809017-.587785 0.587785-.809017 305.307936 599.200562)"><line x1="-45" y1="40" x2="-45" y2="-80" transform="translate(295 170)" fill="none" stroke="#fff" stroke-width="8" stroke-linecap="round"/><line x1="-15" y1="5" x2="5" y2="-25" transform="matrix(-1 0 0-1 255 99.695559)" fill="none" stroke="#fff" stroke-width="8" stroke-linecap="round"/><line x1="-15" y1="5" x2="5" y2="-25" transform="matrix(1 0 0-1 245 99.695559)" fill="none" stroke="#fff" stroke-width="8" stroke-linecap="round"/></g><g id="eVCZTGopJrh39" transform="matrix(-.309017-.951057 0.951057-.309017 89.49012 565.018378)"><line x1="-45" y1="40" x2="-45" y2="-80" transform="translate(295 170)" fill="none" stroke="#fff" stroke-width="8" stroke-linecap="round"/><line x1="-15" y1="5" x2="5" y2="-25" transform="matrix(-1 0 0-1 255 99.695559)" fill="none" stroke="#fff" stroke-width="8" stroke-linecap="round"/><line x1="-15" y1="5" x2="5" y2="-25" transform="matrix(1 0 0-1 245 99.695559)" fill="none" stroke="#fff" stroke-width="8" stroke-linecap="round"/></g><g id="eVCZTGopJrh43" transform="matrix(.309017-.951057 0.951057 0.309017-65.018378 410.50988)"><line x1="-45" y1="40" x2="-45" y2="-80" transform="translate(295 170)" fill="none" stroke="#fff" stroke-width="8" stroke-linecap="round"/><line x1="-15" y1="5" x2="5" y2="-25" transform="matrix(-1 0 0-1 255 99.695559)" fill="none" stroke="#fff" stroke-width="8" stroke-linecap="round"/><line x1="-15" y1="5" x2="5" y2="-25" transform="matrix(1 0 0-1 245 99.695559)" fill="none" stroke="#fff" stroke-width="8" stroke-linecap="round"/></g><g id="eVCZTGopJrh47" transform="matrix(.809017-.587785 0.587785 0.809017-99.200562 194.692064)"><line x1="-45" y1="40" x2="-45" y2="-80" transform="translate(295 170)" fill="none" stroke="#fff" stroke-width="8" stroke-linecap="round"/><line x1="-15" y1="5" x2="5" y2="-25" transform="matrix(-1 0 0-1 255 99.695559)" fill="none" stroke="#fff" stroke-width="8" stroke-linecap="round"/><line x1="-15" y1="5" x2="5" y2="-25" transform="matrix(1 0 0-1 245 99.695559)" fill="none" stroke="#fff" stroke-width="8" stroke-linecap="round"/></g></svg>